<svg xmlns="http://www.w3.org/2000/svg">
    <symbol id="home" xmlns="http://www.w3.org/2000/svg" width="75" height="50" viewBox="0 0 75 50"
        fill="none">
        <rect width="75" height="50" fill="currentColor" fill-opacity="0.01"></rect>
        <path fill-rule="evenodd" clip-rule="evenodd"
            d="M47.7 20.7059L37.7 10.9045C37.3111 10.5234 36.6889 10.5234 36.3 10.9045L26.3 20.7059C26.1081 20.894 26 21.1514 26 21.4201V33.5L26.008 33.5899C26.0504 33.8231 26.2545 34 26.5 34L34.5 33.9997C34.7761 33.9996 35 33.7758 35 33.4997V28L35.0051 27.8237C35.0963 26.2489 35.4023 25 37 25L37.1763 25.0051C38.6344 25.0896 38.9558 26.2155 38.9955 27.6501L39 28V33.4997C39 33.7758 39.2239 33.9996 39.5 33.9997L47.5 34L47.5899 33.9919C47.8231 33.9496 48 33.7455 48 33.5V21.4201C48 21.1514 47.8919 20.894 47.7 20.7059ZM27.5 21.6301L37 12.3188L46.5 21.6301V32.4999L40.5 32.4997V28L40.4953 27.6307C40.4284 25.2006 39.5423 23.6397 37.263 23.5076L37.0433 23.5006C34.5514 23.5 33.6619 25.0746 33.5076 27.737L33.5006 27.9567L33.5001 32.4997L27.5 32.4999V21.6301Z"
            fill="currentColor"></path>
    </symbol>

    <symbol id="search" xmlns="http://www.w3.org/2000/svg" width="75" height="50"
        viewBox="0 0 75 50" fill="none">
        <rect width="75" height="50" fill="currentColor" fill-opacity="0.01" />
        <path fill-rule="evenodd" clip-rule="evenodd"
            d="M44.75 20C44.75 14.6152 40.3848 10.25 35 10.25C29.6152 10.25 25.25 14.6152 25.25 20C25.25 25.3848 29.6152 29.75 35 29.75C37.4226 29.75 39.6388 28.8664 41.344 27.404L47.3336 33.3943L47.4177 33.4669C47.7114 33.6848 48.128 33.6606 48.3943 33.3943C48.6872 33.1014 48.6872 32.6265 48.3943 32.3336L42.404 26.344C43.8664 24.6388 44.75 22.4226 44.75 20ZM26.75 20C26.75 15.4437 30.4437 11.75 35 11.75C39.5563 11.75 43.25 15.4437 43.25 20C43.25 24.5563 39.5563 28.25 35 28.25C30.4437 28.25 26.75 24.5563 26.75 20Z"
            fill="currentColor" />
    </symbol>

    <symbol id="add" xmlns="http://www.w3.org/2000/svg" width="75" height="50" viewBox="0 0 75 50"
        fill="none">
        <rect width="75" height="50" fill="currentColor" fill-opacity="0.01" />
        <path fill-rule="evenodd" clip-rule="evenodd"
            d="M42 10.25C45.7279 10.25 48.75 13.2721 48.75 17V27C48.75 30.7279 45.7279 33.75 42 33.75H32C28.2721 33.75 25.25 30.7279 25.25 27V17C25.25 13.2721 28.2721 10.25 32 10.25H42ZM42 11.75H32C29.1005 11.75 26.75 14.1005 26.75 17V27C26.75 29.8995 29.1005 32.25 32 32.25H42C44.8995 32.25 47.25 29.8995 47.25 27V17C47.25 14.1005 44.8995 11.75 42 11.75ZM37.7432 15.8982C37.6935 15.5322 37.3797 15.25 37 15.25L36.8982 15.2568L36.8006 15.2768C36.4832 15.3641 36.25 15.6548 36.25 16V21.249L31 21.25L30.8982 21.2568C30.5322 21.3065 30.25 21.6203 30.25 22L30.2568 22.1018C30.3065 22.4678 30.6203 22.75 31 22.75L36.25 22.749V28L36.2568 28.1018C36.3065 28.4678 36.6203 28.75 37 28.75L37.1018 28.7432C37.4678 28.6935 37.75 28.3797 37.75 28V22.75H43L43.1018 22.7432C43.4678 22.6935 43.75 22.3797 43.75 22L43.7432 21.8982C43.6935 21.5322 43.3797 21.25 43 21.25H37.75V16L37.7432 15.8982Z"
            fill="currentColor" />
    </symbol>

    <symbol id="like" xmlns="http://www.w3.org/2000/svg" width="75" height="50" viewBox="0 0 75 50"
        fill="none">
        <rect width="75" height="50" fill="currentColor" fill-opacity="0.01" />
        <path fill-rule="evenodd" clip-rule="evenodd"
            d="M36.8725 14.6551L36.2175 13.8895C33.5814 11.2535 29.3776 11.4331 26.7416 14.0691C24.1055 16.7052 24.6128 21.8015 27.2489 24.4375C28.3187 25.5074 29.9209 26.9887 32.0554 28.8815L33.8511 30.4612L35.8681 32.212C36.4234 32.6913 37.2439 32.6986 37.8077 32.2293L39.4416 30.8594C42.3029 28.4413 44.4262 26.5366 45.8115 25.1454L46.171 24.7788L46.4939 24.4375C48.9489 21.7901 49.5798 16.6439 47.005 14.0691L46.8185 13.8895C44.1711 11.4345 40.179 11.3148 37.6042 13.8895L36.8725 14.6551ZM27.8022 15.1298C29.8867 13.0454 33.1114 12.9476 35.118 14.9118L36.8111 16.8905L38.6886 14.9259C40.6145 13.0006 43.6838 13.0284 45.7986 14.9894L45.9645 15.1496C47.7839 16.9694 47.4744 21.1741 45.394 23.4176L45.0815 23.7477L44.7348 24.1012C43.5864 25.2537 41.8845 26.7978 39.6405 28.7208L38.4734 29.7138L36.8481 31.0764L34.8344 29.3285L33.3932 28.0625C31.3624 26.2676 29.7957 24.832 28.6988 23.7613L28.3095 23.3769C26.138 21.2053 25.8664 17.0656 27.8022 15.1298Z"
            fill="currentColor" />
    </symbol>

    <symbol id="message" xmlns="http://www.w3.org/2000/svg" width="24" height="21"
        viewBox="0 0 24 21" fill="none">
        <path fill-rule="evenodd" clip-rule="evenodd"
            d="M22.9345 1.78783L12.2493 20.0414C11.9129 20.616 11.0501 20.4999 10.8776 19.8568L8.12726 9.60116L8.10458 9.56911C8.08415 9.53373 8.06694 9.49737 8.05284 9.46038L0.533002 1.93927C0.0605285 1.46679 0.395154 0.658936 1.06333 0.658936H22.2872C22.8666 0.658936 23.2272 1.28784 22.9345 1.78783ZM20.2342 3.43104L9.66265 9.53454L11.8614 17.7347L20.2342 3.43104ZM2.87399 2.15894L19.4392 2.158L8.9369 8.2215L2.87399 2.15894Z"
            fill="#262626" />
    </symbol>


</svg>